<mxfile host="app.diagrams.net" modified="2021-11-03T09:28:01.148Z" agent="5.0 (Macintosh; Intel Mac OS X 10_15_7) AppleWebKit/605.1.15 (KHTML, like Gecko) Version/15.1 Safari/605.1.15" etag="NAbu6-FywIgxUF_rXpEo" version="15.6.6" type="github">
  <diagram id="vguMqKOHpN7uPl-TGXzs" name="Page-1">
    <mxGraphModel dx="2015" dy="623" grid="1" gridSize="10" guides="1" tooltips="1" connect="1" arrows="1" fold="1" page="1" pageScale="1" pageWidth="827" pageHeight="1169" math="0" shadow="0">
      <root>
        <mxCell id="0" />
        <mxCell id="1" parent="0" />
        <mxCell id="YUzCCpUECBsyAlVZZMWO-27" style="edgeStyle=orthogonalEdgeStyle;rounded=0;orthogonalLoop=1;jettySize=auto;html=1;fontFamily=Helvetica;endArrow=classic;endFill=1;strokeColor=default;" parent="1" source="ZOUjihIOvBYhrfelI1z0-1" target="YUzCCpUECBsyAlVZZMWO-16" edge="1">
          <mxGeometry relative="1" as="geometry">
            <Array as="points">
              <mxPoint x="368" y="330" />
              <mxPoint x="368" y="440" />
              <mxPoint x="528" y="440" />
            </Array>
          </mxGeometry>
        </mxCell>
        <mxCell id="YUzCCpUECBsyAlVZZMWO-56" style="edgeStyle=orthogonalEdgeStyle;rounded=0;orthogonalLoop=1;jettySize=auto;html=1;fontFamily=Helvetica;endArrow=classic;endFill=1;strokeColor=default;" parent="1" source="ZOUjihIOvBYhrfelI1z0-1" target="YUzCCpUECBsyAlVZZMWO-36" edge="1">
          <mxGeometry relative="1" as="geometry">
            <Array as="points">
              <mxPoint x="308" y="605" />
            </Array>
          </mxGeometry>
        </mxCell>
        <mxCell id="ZOUjihIOvBYhrfelI1z0-1" value="úředník" style="swimlane;fontStyle=0;childLayout=stackLayout;horizontal=1;startSize=26;horizontalStack=0;resizeParent=1;resizeParentMax=0;resizeLast=0;collapsible=1;marginBottom=0;align=center;fontSize=14;fontFamily=Helvetica;" parent="1" vertex="1">
          <mxGeometry x="160" y="200" width="160" height="206" as="geometry" />
        </mxCell>
        <mxCell id="ZOUjihIOvBYhrfelI1z0-2" value="&lt;&lt;PK&gt;&gt; osobní číslo" style="text;strokeColor=none;fillColor=none;spacingLeft=4;spacingRight=4;overflow=hidden;rotatable=0;points=[[0,0.5],[1,0.5]];portConstraint=eastwest;fontSize=12;fontFamily=Helvetica;" parent="ZOUjihIOvBYhrfelI1z0-1" vertex="1">
          <mxGeometry y="26" width="160" height="30" as="geometry" />
        </mxCell>
        <mxCell id="ZOUjihIOvBYhrfelI1z0-3" value="jméno" style="text;strokeColor=none;fillColor=none;spacingLeft=4;spacingRight=4;overflow=hidden;rotatable=0;points=[[0,0.5],[1,0.5]];portConstraint=eastwest;fontSize=12;fontFamily=Helvetica;" parent="ZOUjihIOvBYhrfelI1z0-1" vertex="1">
          <mxGeometry y="56" width="160" height="30" as="geometry" />
        </mxCell>
        <mxCell id="ZOUjihIOvBYhrfelI1z0-4" value="příjmení" style="text;strokeColor=none;fillColor=none;spacingLeft=4;spacingRight=4;overflow=hidden;rotatable=0;points=[[0,0.5],[1,0.5]];portConstraint=eastwest;fontSize=12;fontFamily=Helvetica;" parent="ZOUjihIOvBYhrfelI1z0-1" vertex="1">
          <mxGeometry y="86" width="160" height="30" as="geometry" />
        </mxCell>
        <mxCell id="ZOUjihIOvBYhrfelI1z0-5" value="datum narození&#xa;" style="text;strokeColor=none;fillColor=none;spacingLeft=4;spacingRight=4;overflow=hidden;rotatable=0;points=[[0,0.5],[1,0.5]];portConstraint=eastwest;fontSize=12;fontFamily=Helvetica;" parent="ZOUjihIOvBYhrfelI1z0-1" vertex="1">
          <mxGeometry y="116" width="160" height="30" as="geometry" />
        </mxCell>
        <mxCell id="ZOUjihIOvBYhrfelI1z0-6" value="pohlaví" style="text;strokeColor=none;fillColor=none;spacingLeft=4;spacingRight=4;overflow=hidden;rotatable=0;points=[[0,0.5],[1,0.5]];portConstraint=eastwest;fontSize=12;fontFamily=Helvetica;" parent="ZOUjihIOvBYhrfelI1z0-1" vertex="1">
          <mxGeometry y="146" width="160" height="30" as="geometry" />
        </mxCell>
        <mxCell id="K4xKBXBjCAa8w6fEp_1Y-1" value="šlechtický titul" style="text;strokeColor=none;fillColor=none;spacingLeft=4;spacingRight=4;overflow=hidden;rotatable=0;points=[[0,0.5],[1,0.5]];portConstraint=eastwest;fontSize=12;fontFamily=Helvetica;" parent="ZOUjihIOvBYhrfelI1z0-1" vertex="1">
          <mxGeometry y="176" width="160" height="30" as="geometry" />
        </mxCell>
        <mxCell id="EH11lvsD1z63_qBclOPW-1" style="edgeStyle=orthogonalEdgeStyle;rounded=0;orthogonalLoop=1;jettySize=auto;html=1;" edge="1" parent="1" source="YUzCCpUECBsyAlVZZMWO-1" target="3lFEYHUMnGKO-NiMO6cJ-1">
          <mxGeometry relative="1" as="geometry">
            <mxPoint x="880" y="270" as="targetPoint" />
            <Array as="points">
              <mxPoint x="860" y="273" />
              <mxPoint x="860" y="273" />
            </Array>
          </mxGeometry>
        </mxCell>
        <mxCell id="YUzCCpUECBsyAlVZZMWO-1" value="úřad" style="swimlane;fontStyle=0;childLayout=stackLayout;horizontal=1;startSize=26;horizontalStack=0;resizeParent=1;resizeParentMax=0;resizeLast=0;collapsible=1;marginBottom=0;align=center;fontSize=14;fontFamily=Helvetica;" parent="1" vertex="1">
          <mxGeometry x="640" y="110" width="162" height="236" as="geometry" />
        </mxCell>
        <mxCell id="YUzCCpUECBsyAlVZZMWO-2" value="&lt;&lt;PK&gt;&gt; zkratka úřadu" style="text;strokeColor=none;fillColor=none;spacingLeft=4;spacingRight=4;overflow=hidden;rotatable=0;points=[[0,0.5],[1,0.5]];portConstraint=eastwest;fontSize=12;fontFamily=Helvetica;" parent="YUzCCpUECBsyAlVZZMWO-1" vertex="1">
          <mxGeometry y="26" width="162" height="30" as="geometry" />
        </mxCell>
        <mxCell id="YUzCCpUECBsyAlVZZMWO-3" value="název" style="text;strokeColor=none;fillColor=none;spacingLeft=4;spacingRight=4;overflow=hidden;rotatable=0;points=[[0,0.5],[1,0.5]];portConstraint=eastwest;fontSize=12;fontFamily=Helvetica;" parent="YUzCCpUECBsyAlVZZMWO-1" vertex="1">
          <mxGeometry y="56" width="162" height="30" as="geometry" />
        </mxCell>
        <mxCell id="YUzCCpUECBsyAlVZZMWO-4" value="sídlo" style="text;strokeColor=none;fillColor=none;spacingLeft=4;spacingRight=4;overflow=hidden;rotatable=0;points=[[0,0.5],[1,0.5]];portConstraint=eastwest;fontSize=12;fontFamily=Helvetica;" parent="YUzCCpUECBsyAlVZZMWO-1" vertex="1">
          <mxGeometry y="86" width="162" height="30" as="geometry" />
        </mxCell>
        <mxCell id="YUzCCpUECBsyAlVZZMWO-5" value="typ" style="text;strokeColor=none;fillColor=none;spacingLeft=4;spacingRight=4;overflow=hidden;rotatable=0;points=[[0,0.5],[1,0.5]];portConstraint=eastwest;fontSize=12;fontFamily=Helvetica;" parent="YUzCCpUECBsyAlVZZMWO-1" vertex="1">
          <mxGeometry y="116" width="162" height="30" as="geometry" />
        </mxCell>
        <mxCell id="EH11lvsD1z63_qBclOPW-28" value="datum zřízení" style="text;strokeColor=none;fillColor=none;spacingLeft=4;spacingRight=4;overflow=hidden;rotatable=0;points=[[0,0.5],[1,0.5]];portConstraint=eastwest;fontSize=12;fontFamily=Helvetica;" vertex="1" parent="YUzCCpUECBsyAlVZZMWO-1">
          <mxGeometry y="146" width="162" height="30" as="geometry" />
        </mxCell>
        <mxCell id="EH11lvsD1z63_qBclOPW-30" value="zřizovací dokument" style="text;strokeColor=none;fillColor=none;spacingLeft=4;spacingRight=4;overflow=hidden;rotatable=0;points=[[0,0.5],[1,0.5]];portConstraint=eastwest;fontSize=12;fontFamily=Helvetica;" vertex="1" parent="YUzCCpUECBsyAlVZZMWO-1">
          <mxGeometry y="176" width="162" height="30" as="geometry" />
        </mxCell>
        <mxCell id="EH11lvsD1z63_qBclOPW-29" value="datum zaniknutí" style="text;strokeColor=none;fillColor=none;spacingLeft=4;spacingRight=4;overflow=hidden;rotatable=0;points=[[0,0.5],[1,0.5]];portConstraint=eastwest;fontSize=12;fontFamily=Helvetica;" vertex="1" parent="YUzCCpUECBsyAlVZZMWO-1">
          <mxGeometry y="206" width="162" height="30" as="geometry" />
        </mxCell>
        <mxCell id="YUzCCpUECBsyAlVZZMWO-7" style="edgeStyle=orthogonalEdgeStyle;rounded=0;orthogonalLoop=1;jettySize=auto;html=1;fontFamily=Helvetica;" parent="1" source="ZOUjihIOvBYhrfelI1z0-1" target="ZOUjihIOvBYhrfelI1z0-1" edge="1">
          <mxGeometry relative="1" as="geometry">
            <Array as="points">
              <mxPoint x="240" y="160" />
              <mxPoint x="120" y="160" />
              <mxPoint x="120" y="303" />
            </Array>
          </mxGeometry>
        </mxCell>
        <mxCell id="YUzCCpUECBsyAlVZZMWO-8" value="&lt;h1&gt;KIS EU&lt;/h1&gt;" style="text;html=1;strokeColor=none;fillColor=none;spacing=5;spacingTop=-20;whiteSpace=wrap;overflow=hidden;rounded=0;fontFamily=Helvetica;" parent="1" vertex="1">
          <mxGeometry x="18" y="40" width="90" height="30" as="geometry" />
        </mxCell>
        <mxCell id="YUzCCpUECBsyAlVZZMWO-13" style="edgeStyle=orthogonalEdgeStyle;rounded=0;orthogonalLoop=1;jettySize=auto;html=1;fontFamily=Helvetica;strokeColor=default;endArrow=none;endFill=0;dashed=1;" parent="1" source="YUzCCpUECBsyAlVZZMWO-9" edge="1">
          <mxGeometry relative="1" as="geometry">
            <mxPoint x="180" y="160" as="targetPoint" />
          </mxGeometry>
        </mxCell>
        <mxCell id="YUzCCpUECBsyAlVZZMWO-9" value="příbuzný s" style="swimlane;fontStyle=0;childLayout=stackLayout;horizontal=1;startSize=30;horizontalStack=0;resizeParent=1;resizeParentMax=0;resizeLast=0;collapsible=1;marginBottom=0;fontFamily=Helvetica;" parent="1" vertex="1">
          <mxGeometry x="140" y="80" width="80" height="60" as="geometry" />
        </mxCell>
        <mxCell id="YUzCCpUECBsyAlVZZMWO-10" value="vztah" style="text;strokeColor=none;fillColor=none;align=left;verticalAlign=middle;spacingLeft=4;spacingRight=4;overflow=hidden;points=[[0,0.5],[1,0.5]];portConstraint=eastwest;rotatable=0;fontFamily=Helvetica;" parent="YUzCCpUECBsyAlVZZMWO-9" vertex="1">
          <mxGeometry y="30" width="80" height="30" as="geometry" />
        </mxCell>
        <mxCell id="YUzCCpUECBsyAlVZZMWO-31" style="edgeStyle=orthogonalEdgeStyle;rounded=0;orthogonalLoop=1;jettySize=auto;html=1;fontFamily=Helvetica;endArrow=classic;endFill=1;strokeColor=default;" parent="1" source="YUzCCpUECBsyAlVZZMWO-16" target="YUzCCpUECBsyAlVZZMWO-1" edge="1">
          <mxGeometry relative="1" as="geometry">
            <Array as="points">
              <mxPoint x="588" y="432" />
              <mxPoint x="710" y="432" />
            </Array>
          </mxGeometry>
        </mxCell>
        <mxCell id="YUzCCpUECBsyAlVZZMWO-16" value="rozhodnutí" style="swimlane;fontStyle=0;childLayout=stackLayout;horizontal=1;startSize=30;horizontalStack=0;resizeParent=1;resizeParentMax=0;resizeLast=0;collapsible=1;marginBottom=0;fontFamily=Helvetica;" parent="1" vertex="1">
          <mxGeometry x="518" y="480" width="140" height="180" as="geometry" />
        </mxCell>
        <mxCell id="YUzCCpUECBsyAlVZZMWO-17" value="&lt;&lt;PK&gt;&gt; jednací číslo" style="text;strokeColor=none;fillColor=none;align=left;verticalAlign=middle;spacingLeft=4;spacingRight=4;overflow=hidden;points=[[0,0.5],[1,0.5]];portConstraint=eastwest;rotatable=0;fontFamily=Helvetica;" parent="YUzCCpUECBsyAlVZZMWO-16" vertex="1">
          <mxGeometry y="30" width="140" height="30" as="geometry" />
        </mxCell>
        <mxCell id="YUzCCpUECBsyAlVZZMWO-18" value="datum rozhodnutí" style="text;strokeColor=none;fillColor=none;align=left;verticalAlign=middle;spacingLeft=4;spacingRight=4;overflow=hidden;points=[[0,0.5],[1,0.5]];portConstraint=eastwest;rotatable=0;fontFamily=Helvetica;" parent="YUzCCpUECBsyAlVZZMWO-16" vertex="1">
          <mxGeometry y="60" width="140" height="30" as="geometry" />
        </mxCell>
        <mxCell id="YUzCCpUECBsyAlVZZMWO-19" value="datum vykonatelnosti" style="text;strokeColor=none;fillColor=none;align=left;verticalAlign=middle;spacingLeft=4;spacingRight=4;overflow=hidden;points=[[0,0.5],[1,0.5]];portConstraint=eastwest;rotatable=0;fontFamily=Helvetica;" parent="YUzCCpUECBsyAlVZZMWO-16" vertex="1">
          <mxGeometry y="90" width="140" height="30" as="geometry" />
        </mxCell>
        <mxCell id="YUzCCpUECBsyAlVZZMWO-20" value="text rozhodnutí" style="text;strokeColor=none;fillColor=none;align=left;verticalAlign=middle;spacingLeft=4;spacingRight=4;overflow=hidden;points=[[0,0.5],[1,0.5]];portConstraint=eastwest;rotatable=0;fontFamily=Helvetica;" parent="YUzCCpUECBsyAlVZZMWO-16" vertex="1">
          <mxGeometry y="120" width="140" height="30" as="geometry" />
        </mxCell>
        <mxCell id="YUzCCpUECBsyAlVZZMWO-21" value="text odůvodnění" style="text;strokeColor=none;fillColor=none;align=left;verticalAlign=middle;spacingLeft=4;spacingRight=4;overflow=hidden;points=[[0,0.5],[1,0.5]];portConstraint=eastwest;rotatable=0;fontFamily=Helvetica;" parent="YUzCCpUECBsyAlVZZMWO-16" vertex="1">
          <mxGeometry y="150" width="140" height="30" as="geometry" />
        </mxCell>
        <mxCell id="YUzCCpUECBsyAlVZZMWO-30" value="udělal" style="text;html=1;strokeColor=none;fillColor=none;align=center;verticalAlign=middle;whiteSpace=wrap;rounded=0;fontFamily=Helvetica;" parent="1" vertex="1">
          <mxGeometry x="400" y="420" width="60" height="26" as="geometry" />
        </mxCell>
        <mxCell id="YUzCCpUECBsyAlVZZMWO-32" value="spadá pod" style="text;html=1;strokeColor=none;fillColor=none;align=center;verticalAlign=middle;whiteSpace=wrap;rounded=0;fontFamily=Helvetica;" parent="1" vertex="1">
          <mxGeometry x="620" y="400" width="60" height="30" as="geometry" />
        </mxCell>
        <mxCell id="V2bO78Ce8K--TRu7kbpJ-16" style="edgeStyle=orthogonalEdgeStyle;rounded=0;orthogonalLoop=1;jettySize=auto;html=1;" parent="1" source="YUzCCpUECBsyAlVZZMWO-36" target="YUzCCpUECBsyAlVZZMWO-1" edge="1">
          <mxGeometry relative="1" as="geometry">
            <Array as="points">
              <mxPoint x="740" y="710" />
            </Array>
          </mxGeometry>
        </mxCell>
        <mxCell id="YUzCCpUECBsyAlVZZMWO-36" value="&lt;&lt;weak&gt;&gt;&#xa;funkce" style="swimlane;fontStyle=0;childLayout=stackLayout;horizontal=1;startSize=30;horizontalStack=0;resizeParent=1;resizeParentMax=0;resizeLast=0;collapsible=1;marginBottom=0;fontFamily=Helvetica;" parent="1" vertex="1">
          <mxGeometry x="168" y="570" width="160" height="210" as="geometry" />
        </mxCell>
        <mxCell id="YUzCCpUECBsyAlVZZMWO-37" value="&lt;&lt;D&gt;&gt; kód v rámci úřadu" style="text;strokeColor=none;fillColor=none;align=left;verticalAlign=middle;spacingLeft=4;spacingRight=4;overflow=hidden;points=[[0,0.5],[1,0.5]];portConstraint=eastwest;rotatable=0;fontFamily=Helvetica;" parent="YUzCCpUECBsyAlVZZMWO-36" vertex="1">
          <mxGeometry y="30" width="160" height="30" as="geometry" />
        </mxCell>
        <mxCell id="YUzCCpUECBsyAlVZZMWO-38" value="název" style="text;strokeColor=none;fillColor=none;align=left;verticalAlign=middle;spacingLeft=4;spacingRight=4;overflow=hidden;points=[[0,0.5],[1,0.5]];portConstraint=eastwest;rotatable=0;fontFamily=Helvetica;" parent="YUzCCpUECBsyAlVZZMWO-36" vertex="1">
          <mxGeometry y="60" width="160" height="30" as="geometry" />
        </mxCell>
        <mxCell id="YUzCCpUECBsyAlVZZMWO-39" value="způsob získání" style="text;strokeColor=none;fillColor=none;align=left;verticalAlign=middle;spacingLeft=4;spacingRight=4;overflow=hidden;points=[[0,0.5],[1,0.5]];portConstraint=eastwest;rotatable=0;fontFamily=Helvetica;" parent="YUzCCpUECBsyAlVZZMWO-36" vertex="1">
          <mxGeometry y="90" width="160" height="30" as="geometry" />
        </mxCell>
        <mxCell id="YUzCCpUECBsyAlVZZMWO-51" value="délka funkčního období" style="text;strokeColor=none;fillColor=none;align=left;verticalAlign=middle;spacingLeft=4;spacingRight=4;overflow=hidden;points=[[0,0.5],[1,0.5]];portConstraint=eastwest;rotatable=0;fontFamily=Helvetica;" parent="YUzCCpUECBsyAlVZZMWO-36" vertex="1">
          <mxGeometry y="120" width="160" height="30" as="geometry" />
        </mxCell>
        <mxCell id="YUzCCpUECBsyAlVZZMWO-52" value="datum zavedení" style="text;strokeColor=none;fillColor=none;align=left;verticalAlign=middle;spacingLeft=4;spacingRight=4;overflow=hidden;points=[[0,0.5],[1,0.5]];portConstraint=eastwest;rotatable=0;fontFamily=Helvetica;" parent="YUzCCpUECBsyAlVZZMWO-36" vertex="1">
          <mxGeometry y="150" width="160" height="30" as="geometry" />
        </mxCell>
        <mxCell id="YUzCCpUECBsyAlVZZMWO-53" value="datum zrušení" style="text;strokeColor=none;fillColor=none;align=left;verticalAlign=middle;spacingLeft=4;spacingRight=4;overflow=hidden;points=[[0,0.5],[1,0.5]];portConstraint=eastwest;rotatable=0;fontFamily=Helvetica;" parent="YUzCCpUECBsyAlVZZMWO-36" vertex="1">
          <mxGeometry y="180" width="160" height="30" as="geometry" />
        </mxCell>
        <mxCell id="YUzCCpUECBsyAlVZZMWO-41" style="edgeStyle=orthogonalEdgeStyle;rounded=0;orthogonalLoop=1;jettySize=auto;html=1;fontFamily=Helvetica;endArrow=classic;endFill=1;strokeColor=default;" parent="1" source="ZOUjihIOvBYhrfelI1z0-1" target="YUzCCpUECBsyAlVZZMWO-1" edge="1">
          <mxGeometry relative="1" as="geometry">
            <Array as="points">
              <mxPoint x="490" y="280" />
              <mxPoint x="490" y="280" />
            </Array>
          </mxGeometry>
        </mxCell>
        <mxCell id="YUzCCpUECBsyAlVZZMWO-44" style="edgeStyle=orthogonalEdgeStyle;rounded=0;orthogonalLoop=1;jettySize=auto;html=1;fontFamily=Helvetica;endArrow=none;endFill=0;strokeColor=default;dashed=1;" parent="1" source="YUzCCpUECBsyAlVZZMWO-42" edge="1">
          <mxGeometry relative="1" as="geometry">
            <mxPoint x="480" y="280" as="targetPoint" />
            <Array as="points">
              <mxPoint x="480" y="250" />
              <mxPoint x="480" y="250" />
            </Array>
          </mxGeometry>
        </mxCell>
        <mxCell id="YUzCCpUECBsyAlVZZMWO-42" value="studoval" style="swimlane;fontStyle=0;childLayout=stackLayout;horizontal=1;startSize=30;horizontalStack=0;resizeParent=1;resizeParentMax=0;resizeLast=0;collapsible=1;marginBottom=0;fontFamily=Helvetica;" parent="1" vertex="1">
          <mxGeometry x="410" y="30" width="140" height="210" as="geometry" />
        </mxCell>
        <mxCell id="V2bO78Ce8K--TRu7kbpJ-13" value="obor" style="text;strokeColor=none;fillColor=none;align=left;verticalAlign=middle;spacingLeft=4;spacingRight=4;overflow=hidden;points=[[0,0.5],[1,0.5]];portConstraint=eastwest;rotatable=0;fontFamily=Helvetica;" parent="YUzCCpUECBsyAlVZZMWO-42" vertex="1">
          <mxGeometry y="30" width="140" height="30" as="geometry" />
        </mxCell>
        <mxCell id="YUzCCpUECBsyAlVZZMWO-45" value="stupeň" style="text;strokeColor=none;fillColor=none;align=left;verticalAlign=middle;spacingLeft=4;spacingRight=4;overflow=hidden;points=[[0,0.5],[1,0.5]];portConstraint=eastwest;rotatable=0;fontFamily=Helvetica;" parent="YUzCCpUECBsyAlVZZMWO-42" vertex="1">
          <mxGeometry y="60" width="140" height="30" as="geometry" />
        </mxCell>
        <mxCell id="YUzCCpUECBsyAlVZZMWO-46" value="záčátek studia" style="text;strokeColor=none;fillColor=none;align=left;verticalAlign=middle;spacingLeft=4;spacingRight=4;overflow=hidden;points=[[0,0.5],[1,0.5]];portConstraint=eastwest;rotatable=0;fontFamily=Helvetica;" parent="YUzCCpUECBsyAlVZZMWO-42" vertex="1">
          <mxGeometry y="90" width="140" height="30" as="geometry" />
        </mxCell>
        <mxCell id="YUzCCpUECBsyAlVZZMWO-47" value="konec studia" style="text;strokeColor=none;fillColor=none;align=left;verticalAlign=middle;spacingLeft=4;spacingRight=4;overflow=hidden;points=[[0,0.5],[1,0.5]];portConstraint=eastwest;rotatable=0;fontFamily=Helvetica;" parent="YUzCCpUECBsyAlVZZMWO-42" vertex="1">
          <mxGeometry y="120" width="140" height="30" as="geometry" />
        </mxCell>
        <mxCell id="K4xKBXBjCAa8w6fEp_1Y-2" value="získaný akademický titul" style="text;strokeColor=none;fillColor=none;align=left;verticalAlign=middle;spacingLeft=4;spacingRight=4;overflow=hidden;points=[[0,0.5],[1,0.5]];portConstraint=eastwest;rotatable=0;fontFamily=Helvetica;" parent="YUzCCpUECBsyAlVZZMWO-42" vertex="1">
          <mxGeometry y="150" width="140" height="30" as="geometry" />
        </mxCell>
        <mxCell id="YUzCCpUECBsyAlVZZMWO-48" value="zakončeno úspěšně " style="text;strokeColor=none;fillColor=none;align=left;verticalAlign=middle;spacingLeft=4;spacingRight=4;overflow=hidden;points=[[0,0.5],[1,0.5]];portConstraint=eastwest;rotatable=0;fontFamily=Helvetica;" parent="YUzCCpUECBsyAlVZZMWO-42" vertex="1">
          <mxGeometry y="180" width="140" height="30" as="geometry" />
        </mxCell>
        <mxCell id="YUzCCpUECBsyAlVZZMWO-66" style="edgeStyle=orthogonalEdgeStyle;rounded=0;orthogonalLoop=1;jettySize=auto;html=1;fontFamily=Helvetica;endArrow=none;endFill=0;strokeColor=default;dashed=1;" parent="1" source="YUzCCpUECBsyAlVZZMWO-59" edge="1">
          <mxGeometry relative="1" as="geometry">
            <mxPoint x="240" y="490" as="targetPoint" />
          </mxGeometry>
        </mxCell>
        <mxCell id="YUzCCpUECBsyAlVZZMWO-59" value="zastává" style="swimlane;fontStyle=0;childLayout=stackLayout;horizontal=1;startSize=30;horizontalStack=0;resizeParent=1;resizeParentMax=0;resizeLast=0;collapsible=1;marginBottom=0;fontFamily=Helvetica;" parent="1" vertex="1">
          <mxGeometry x="-7" y="430" width="140" height="120" as="geometry" />
        </mxCell>
        <mxCell id="YUzCCpUECBsyAlVZZMWO-60" value="datum začátku" style="text;strokeColor=none;fillColor=none;align=left;verticalAlign=middle;spacingLeft=4;spacingRight=4;overflow=hidden;points=[[0,0.5],[1,0.5]];portConstraint=eastwest;rotatable=0;fontFamily=Helvetica;" parent="YUzCCpUECBsyAlVZZMWO-59" vertex="1">
          <mxGeometry y="30" width="140" height="30" as="geometry" />
        </mxCell>
        <mxCell id="YUzCCpUECBsyAlVZZMWO-68" value="datum ukončení" style="text;strokeColor=none;fillColor=none;align=left;verticalAlign=middle;spacingLeft=4;spacingRight=4;overflow=hidden;points=[[0,0.5],[1,0.5]];portConstraint=eastwest;rotatable=0;fontFamily=Helvetica;" parent="YUzCCpUECBsyAlVZZMWO-59" vertex="1">
          <mxGeometry y="60" width="140" height="30" as="geometry" />
        </mxCell>
        <mxCell id="YUzCCpUECBsyAlVZZMWO-67" value="důvod opuštění" style="text;strokeColor=none;fillColor=none;align=left;verticalAlign=middle;spacingLeft=4;spacingRight=4;overflow=hidden;points=[[0,0.5],[1,0.5]];portConstraint=eastwest;rotatable=0;fontFamily=Helvetica;" parent="YUzCCpUECBsyAlVZZMWO-59" vertex="1">
          <mxGeometry y="90" width="140" height="30" as="geometry" />
        </mxCell>
        <mxCell id="V2bO78Ce8K--TRu7kbpJ-24" value="zavedena v &amp;lt;&amp;lt;identif&amp;gt;&amp;gt;" style="text;html=1;strokeColor=none;fillColor=none;align=center;verticalAlign=middle;whiteSpace=wrap;rounded=0;" parent="1" vertex="1">
          <mxGeometry x="438" y="680" width="144" height="30" as="geometry" />
        </mxCell>
        <mxCell id="3lFEYHUMnGKO-NiMO6cJ-1" value="územní působnost" style="swimlane;fontStyle=0;childLayout=stackLayout;horizontal=1;startSize=26;horizontalStack=0;resizeParent=1;resizeParentMax=0;resizeLast=0;collapsible=1;marginBottom=0;align=center;fontSize=14;fontFamily=Helvetica;" parent="1" vertex="1">
          <mxGeometry x="1010" y="230" width="162" height="86" as="geometry" />
        </mxCell>
        <mxCell id="3lFEYHUMnGKO-NiMO6cJ-2" value="&lt;&lt;PK&gt;&gt; ID území" style="text;strokeColor=none;fillColor=none;spacingLeft=4;spacingRight=4;overflow=hidden;rotatable=0;points=[[0,0.5],[1,0.5]];portConstraint=eastwest;fontSize=12;fontFamily=Helvetica;" parent="3lFEYHUMnGKO-NiMO6cJ-1" vertex="1">
          <mxGeometry y="26" width="162" height="30" as="geometry" />
        </mxCell>
        <mxCell id="EH11lvsD1z63_qBclOPW-4" value="část území" style="text;strokeColor=none;fillColor=none;spacingLeft=4;spacingRight=4;overflow=hidden;rotatable=0;points=[[0,0.5],[1,0.5]];portConstraint=eastwest;fontSize=12;fontFamily=Helvetica;" vertex="1" parent="3lFEYHUMnGKO-NiMO6cJ-1">
          <mxGeometry y="56" width="162" height="30" as="geometry" />
        </mxCell>
        <mxCell id="EH11lvsD1z63_qBclOPW-2" value="má přidělenou" style="text;html=1;strokeColor=none;fillColor=none;align=center;verticalAlign=middle;whiteSpace=wrap;rounded=0;" vertex="1" parent="1">
          <mxGeometry x="870" y="242" width="80" height="30" as="geometry" />
        </mxCell>
        <mxCell id="EH11lvsD1z63_qBclOPW-9" value="0 .. N" style="text;html=1;strokeColor=none;fillColor=none;align=center;verticalAlign=middle;whiteSpace=wrap;rounded=0;" vertex="1" parent="1">
          <mxGeometry x="590" y="450" width="40" height="30" as="geometry" />
        </mxCell>
        <mxCell id="EH11lvsD1z63_qBclOPW-11" value="0 .. N" style="text;html=1;strokeColor=none;fillColor=none;align=center;verticalAlign=middle;whiteSpace=wrap;rounded=0;" vertex="1" parent="1">
          <mxGeometry x="320" y="250" width="39" height="30" as="geometry" />
        </mxCell>
        <mxCell id="EH11lvsD1z63_qBclOPW-13" value="0 .. N" style="text;html=1;strokeColor=none;fillColor=none;align=center;verticalAlign=middle;whiteSpace=wrap;rounded=0;" vertex="1" parent="1">
          <mxGeometry x="600" y="250" width="40" height="30" as="geometry" />
        </mxCell>
        <mxCell id="EH11lvsD1z63_qBclOPW-14" value="1" style="text;html=1;strokeColor=none;fillColor=none;align=center;verticalAlign=middle;whiteSpace=wrap;rounded=0;" vertex="1" parent="1">
          <mxGeometry x="690" y="346" width="20" height="30" as="geometry" />
        </mxCell>
        <mxCell id="EH11lvsD1z63_qBclOPW-16" value="0 .. N" style="text;html=1;strokeColor=none;fillColor=none;align=center;verticalAlign=middle;whiteSpace=wrap;rounded=0;" vertex="1" parent="1">
          <mxGeometry x="490" y="446" width="40" height="30" as="geometry" />
        </mxCell>
        <mxCell id="EH11lvsD1z63_qBclOPW-17" value="1" style="text;html=1;strokeColor=none;fillColor=none;align=center;verticalAlign=middle;whiteSpace=wrap;rounded=0;" vertex="1" parent="1">
          <mxGeometry x="320" y="300" width="20" height="30" as="geometry" />
        </mxCell>
        <mxCell id="EH11lvsD1z63_qBclOPW-20" value="1 .. N" style="text;html=1;strokeColor=none;fillColor=none;align=center;verticalAlign=middle;whiteSpace=wrap;rounded=0;" vertex="1" parent="1">
          <mxGeometry x="802" y="242" width="39" height="30" as="geometry" />
        </mxCell>
        <mxCell id="EH11lvsD1z63_qBclOPW-23" value="1" style="text;html=1;strokeColor=none;fillColor=none;align=center;verticalAlign=middle;whiteSpace=wrap;rounded=0;" vertex="1" parent="1">
          <mxGeometry x="990" y="242" width="20" height="30" as="geometry" />
        </mxCell>
        <mxCell id="EH11lvsD1z63_qBclOPW-24" value="1" style="text;html=1;strokeColor=none;fillColor=none;align=center;verticalAlign=middle;whiteSpace=wrap;rounded=0;" vertex="1" parent="1">
          <mxGeometry x="240" y="406" width="20" height="30" as="geometry" />
        </mxCell>
        <mxCell id="EH11lvsD1z63_qBclOPW-25" value="0 .. N" style="text;html=1;strokeColor=none;fillColor=none;align=center;verticalAlign=middle;whiteSpace=wrap;rounded=0;" vertex="1" parent="1">
          <mxGeometry x="240" y="540" width="40" height="30" as="geometry" />
        </mxCell>
        <mxCell id="EH11lvsD1z63_qBclOPW-26" value="0 .. N" style="text;html=1;strokeColor=none;fillColor=none;align=center;verticalAlign=middle;whiteSpace=wrap;rounded=0;" vertex="1" parent="1">
          <mxGeometry x="240" y="170" width="39" height="30" as="geometry" />
        </mxCell>
        <mxCell id="EH11lvsD1z63_qBclOPW-27" value="0 .. 1" style="text;html=1;strokeColor=none;fillColor=none;align=center;verticalAlign=middle;whiteSpace=wrap;rounded=0;" vertex="1" parent="1">
          <mxGeometry x="129" y="272" width="31" height="30" as="geometry" />
        </mxCell>
      </root>
    </mxGraphModel>
  </diagram>
</mxfile>
